#N canvas 288 105 894 573 12;
#X obj 48 29 cnv 5 750 420 empty empty empty 20 12 0 20 -203904 -66577
0;
#X obj 606 242 cnv 15 120 180 empty empty empty 20 12 0 14 -228856
-66577 0;
#X obj 611 201 osc~;
#X obj 385 355 dac~;
#X floatatom 611 175 5 200 800 0 - - -;
#X floatatom 625 391 5 0 1 0 - - -;
#X obj 625 332 vsl 15 50 0 1 0 0 empty empty empty 0 -9 0 10 -262130
-1 -1 449 1;
#X floatatom 187 129 5 0 0 0 - - -;
#X floatatom 527 128 5 0 0 0 - - -;
#X floatatom 682 127 5 0 0 0 - - -;
#X floatatom 357 129 5 0 0 0 - - -;
#X obj 187 101 ctlin 6;
#X obj 357 103 ctlin 7;
#X obj 527 103 ctlin 8;
#X obj 682 102 ctlin 9;
#X floatatom 187 204 5 0 0 0 - - -;
#X msg 195 179 0;
#X msg 227 179 1;
#X floatatom 357 202 5 0 0 0 - - -;
#X floatatom 527 199 5 0 0 0 - - -;
#X floatatom 682 202 5 0 0 0 - - -;
#X msg 367 176 0;
#X msg 399 176 1;
#X msg 533 175 0;
#X msg 565 175 1;
#X msg 690 178 0;
#X msg 721 179 1;
#X obj 357 153 / 127;
#X obj 682 153 / 127;
#X obj 527 152 / 127;
#X obj 187 156 / 127;
#X obj 611 102 ctlin 4;
#X obj 459 102 ctlin 3;
#X obj 294 102 ctlin 2;
#X obj 120 101 ctlin 1;
#X obj 459 203 osc~;
#X floatatom 459 177 5 200 800 0 - - -;
#X obj 475 235 *~;
#X obj 439 237 *~;
#X obj 120 207 osc~;
#X floatatom 120 181 5 200 800 0 - - -;
#X obj 123 130 hsl 50 15 48 72 0 0 empty empty empty -2 -8 0 10 -261234
-1 -1 0 1;
#X obj 294 202 osc~;
#X floatatom 294 178 5 200 800 0 - - -;
#X obj 349 239 *~;
#X obj 383 238 *~;
#X obj 120 152 * 4;
#X obj 294 153 * 8;
#X obj 297 131 hsl 50 15 48 72 0 0 empty empty empty -2 -8 0 10 -257985
-1 -1 4492 1;
#X obj 462 128 hsl 50 15 48 72 0 0 empty empty empty -2 -8 0 10 -204786
-1 -1 0 1;
#X obj 459 150 * 12;
#X obj 614 128 hsl 50 15 48 72 0 0 empty empty empty -2 -8 0 10 -204800
-1 -1 1633 1;
#X obj 611 150 * 22;
#X floatatom 625 283 5 0 0 0 - - -;
#X floatatom 670 283 5 0 0 0 - - -;
#X obj 625 261 ctlin 5, f 8;
#X obj 625 305 / 120;
#N canvas 301 372 390 341 dly 0;
#X obj 18 183 *~;
#X obj 99 142 *~;
#X floatatom 126 143 5 0 1 0 - - -;
#X obj 99 165 freeverb~;
#X msg 172 146 dry \$1;
#X msg 226 146 wet \$1;
#X msg 281 146 roomsize \$1;
#X obj 175 127 hsl 45 15 0 1 0 0 empty empty empty -2 -8 0 10 -262144
-1 -1 0 1;
#X obj 229 127 hsl 45 15 0 1 0 0 empty empty empty -2 -8 0 10 -262144
-1 -1 4400 1;
#X obj 284 127 hsl 80 15 0 1 0 0 empty empty empty -2 -8 0 10 -262144
-1 -1 7900 1;
#X obj 18 135 *~;
#X floatatom 59 117 3 0 0 0 - - -;
#X obj 141 43 delwrite~ delay 1500;
#X obj 186 94 delread~ delay;
#X obj 18 111 +~;
#X text 122 125 REVERB;
#X obj 16 11 inlet~;
#X obj 18 209 outlet~;
#X msg 193 242 \$1 20;
#X obj 193 268 line~;
#X floatatom 193 216 3 0 0 0 - - -;
#X obj 186 71 receive dly;
#X connect 0 0 17 0;
#X connect 1 0 3 0;
#X connect 2 0 1 1;
#X connect 3 0 0 0;
#X connect 4 0 3 0;
#X connect 5 0 3 0;
#X connect 6 0 3 0;
#X connect 7 0 4 0;
#X connect 8 0 5 0;
#X connect 9 0 6 0;
#X connect 10 0 0 0;
#X connect 11 0 10 1;
#X connect 13 0 14 1;
#X connect 14 0 10 0;
#X connect 16 0 1 0;
#X connect 16 0 14 0;
#X connect 16 0 12 0;
#X connect 18 0 19 0;
#X connect 19 0 0 1;
#X connect 20 0 18 0;
#X connect 21 0 13 0;
#X restore 384 293 pd dly rvb;
#X obj 411 270 *~;
#X obj 384 315 *~;
#X obj 347 302 tgl 15 0 empty empty empty 17 7 0 10 -262144 -1 -1 1
1;
#X text 350 41 SORIA'S SPACE CHOIR;
#X text 116 78 Voice 1;
#X text 291 79 Voice 2;
#X text 458 81 Voice 3;
#X text 609 81 Voice 4;
#X text 295 302 On/Off;
#X text 51 476 Observaciones: -Subir valores de subparche RVB a 1 -Encender
voces con botones y controlar freq con pots. -Amplitud controlada con
fotorresistencia.;
#X connect 2 0 37 0;
#X connect 4 0 2 0;
#X connect 5 0 58 1;
#X connect 6 0 5 0;
#X connect 7 0 30 0;
#X connect 8 0 29 0;
#X connect 9 0 28 0;
#X connect 10 0 27 0;
#X connect 11 0 7 0;
#X connect 12 0 10 0;
#X connect 13 0 8 0;
#X connect 14 0 9 0;
#X connect 15 0 44 1;
#X connect 16 0 15 0;
#X connect 17 0 15 0;
#X connect 18 0 45 1;
#X connect 19 0 38 1;
#X connect 20 0 37 1;
#X connect 21 0 18 0;
#X connect 22 0 18 0;
#X connect 23 0 19 0;
#X connect 24 0 19 0;
#X connect 25 0 20 0;
#X connect 26 0 20 0;
#X connect 27 0 18 0;
#X connect 28 0 20 0;
#X connect 29 0 19 0;
#X connect 30 0 15 0;
#X connect 31 0 51 0;
#X connect 32 0 49 0;
#X connect 33 0 48 0;
#X connect 34 0 41 0;
#X connect 35 0 38 0;
#X connect 36 0 35 0;
#X connect 37 0 58 0;
#X connect 38 0 58 0;
#X connect 39 0 44 0;
#X connect 40 0 39 0;
#X connect 41 0 46 0;
#X connect 42 0 45 0;
#X connect 43 0 42 0;
#X connect 44 0 58 0;
#X connect 45 0 58 0;
#X connect 46 0 40 0;
#X connect 47 0 43 0;
#X connect 48 0 47 0;
#X connect 49 0 50 0;
#X connect 50 0 36 0;
#X connect 51 0 52 0;
#X connect 52 0 4 0;
#X connect 53 0 56 0;
#X connect 55 0 53 0;
#X connect 55 1 54 0;
#X connect 56 0 6 0;
#X connect 57 0 59 0;
#X connect 58 0 57 0;
#X connect 59 0 3 0;
#X connect 59 0 3 1;
#X connect 60 0 59 1;
